<?xml version="1.0"?>
<svg xmlns="http://www.w3.org/2000/svg" xmlns:xlink="http://www.w3.org/1999/xlink" width="512px" height="512px" viewBox="0 0 58 58" version="1.1" class=""><g><title>007 - Rev Gauge</title><desc>Created with Sketch.</desc><defs/><g id="Page-1" stroke="none" stroke-width="1" fill="none" fill-rule="evenodd"><g id="007---Rev-Gauge" fill-rule="nonzero"><circle id="Oval" fill="#2C2F38" cx="29" cy="29" r="29" data-original="#2C2F38" class="active-path" style="fill:#2C2F38"/><circle id="Oval" fill="#7F8C8D" cx="29" cy="33" r="4" data-original="#7F8C8D" class="" style="fill:#7F8C8D"/><path d="M48,30 C47.4477153,30 47,29.5522847 47,29 C47,28.639 46.991,28.277 46.972,27.925 C46.935,27.389 46.878,26.85 46.803,26.319 C46.803,26.301 46.796,26.282 46.793,26.264 C46.747,25.964 46.7,25.677 46.636,25.388 C46.4689058,24.551 46.2372125,23.7282044 45.943,22.927 C45.8639679,22.6827971 45.7708109,22.4433935 45.664,22.21 C45.6419559,22.1613267 45.6232461,22.1112112 45.608,22.06 C45.471,21.728 45.345,21.46 45.221,21.204 C45.097,20.948 44.964,20.684 44.826,20.435 C43.1632274,17.365955 40.6448978,14.8458883 37.577,13.181 C37.316,13.036 37.067,12.906 36.81,12.787 C36.51,12.644 36.221,12.506 35.92,12.387 C35.8759291,12.3736385 35.8328278,12.3572667 35.791,12.338 C35.5677846,12.2350093 35.3387253,12.1451886 35.105,12.069 C34.3004461,11.7717717 33.4739412,11.537729 32.633,11.369 C32.322,11.299 32.033,11.253 31.733,11.207 L31.67,11.195 C31.143,11.121 30.604,11.064 30.058,11.026 C29.346147,10.9890038 28.632853,10.9890038 27.921,11.026 C27.389,11.063 26.851,11.12 26.321,11.194 C26.301,11.199 26.28,11.203 26.26,11.206 C25.96,11.252 25.675,11.298 25.387,11.363 C24.5489389,11.5297556 23.7251202,11.7614546 22.923,12.056 C22.6787731,12.1353521 22.4393688,12.2288433 22.206,12.336 C22.1641722,12.3552667 22.1210709,12.3716385 22.077,12.385 C21.777,12.504 21.484,12.642 21.2,12.778 C20.916,12.914 20.681,13.034 20.433,13.172 C17.3633896,14.8346959 14.8426579,17.3529959 13.177,20.421 C13.033,20.682 12.903,20.931 12.783,21.189 C12.64,21.489 12.501,21.78 12.383,22.082 C12.3691915,22.1249387 12.352829,22.1670137 12.334,22.208 C12.2313362,22.4312323 12.1418493,22.660292 12.066,22.894 C11.7686056,23.6988411 11.5345599,24.5256914 11.366,25.367 C11.297,25.675 11.25,25.967 11.204,26.262 C11.204,26.281 11.198,26.3 11.194,26.318 C11.1193333,26.8513333 11.063,27.391 11.025,27.937 C11.006,28.275 10.997,28.637 10.997,28.998 C10.997,29.5502847 10.5492847,29.998 9.997,29.998 C9.44471525,29.998 8.997,29.5502847 8.997,28.998 C8.997,28.598 9.008,28.198 9.029,27.813 C9.071,27.194 9.134,26.601 9.217,26.013 C9.217,25.983 9.225,25.954 9.231,25.926 C9.283,25.593 9.338,25.269 9.41,24.946 C9.59432985,24.0208297 9.85146314,23.1116679 10.179,22.227 C10.2694154,21.9523432 10.3742271,21.6826366 10.493,21.419 C10.5078608,21.3737802 10.525906,21.3296698 10.547,21.287 C10.654,21.004 10.815,20.662 10.975,20.33 C11.108,20.042 11.26,19.751 11.421,19.46 C13.2704256,16.0555035 16.0673554,13.2603105 19.473,11.413 C19.751,11.258 20.043,11.107 20.344,10.967 C20.663,10.813 21.007,10.653 21.36,10.514 L21.418,10.493 C21.6931222,10.3691226 21.9745024,10.2596413 22.261,10.165 C23.142601,9.84265535 24.0475763,9.58824597 24.968,9.404 C25.268,9.335 25.591,9.283 25.925,9.23 C25.9536667,9.224 25.9836667,9.219 26.015,9.215 C26.5983333,9.13233333 27.1923333,9.06966667 27.797,9.027 C28.5907515,8.98400284 29.3862485,8.98400284 30.18,9.027 C30.8,9.07 31.394,9.133 31.98,9.216 C32.0109277,9.21970505 32.0416374,9.22504587 32.072,9.232 C32.405,9.284 32.727,9.337 33.05,9.41 C33.9735644,9.59604642 34.881546,9.85246095 35.766,10.177 C36.0415782,10.2687233 36.3122676,10.3745292 36.577,10.494 L36.635,10.515 C36.988,10.654 37.335,10.815 37.664,10.974 C37.952,11.108 38.244,11.259 38.535,11.421 C41.9385832,13.2705121 44.7330259,16.0670389 46.58,19.472 C46.735,19.752 46.887,20.043 47.026,20.344 C47.18,20.663 47.341,21.005 47.479,21.359 C47.4865864,21.3769857 47.4932615,21.3953423 47.499,21.414 C47.6228774,21.6899253 47.732685,21.971954 47.828,22.259 C48.1518967,23.140181 48.4066672,24.0452514 48.59,24.966 C48.658,25.266 48.712,25.595 48.764,25.929 C48.77,25.956 48.774,25.985 48.778,26.014 C48.8606667,26.598 48.9233333,27.192 48.966,27.796 C48.9886667,28.1986667 49,28.6 49,29 C49,29.5522847 48.5522847,30 48,30 Z" id="Shape" fill="#E64C3C" data-original="#E64C3C" class="" style="fill:#E64C3C"/><path d="M53,29 C53.0011003,30.0535338 52.9309402,31.1059356 52.79,32.15 C52.7218929,32.642625 52.2972584,33.0072102 51.8,33 L37.94,33 C37.4375415,33.0019026 37.0126778,32.6285375 36.95,32.13 C36.8510875,31.2050827 36.5904598,30.3047325 36.18,29.47 L36.17,29.46 C35.3872563,27.8872224 34.1127776,26.6127437 32.54,25.83 C31.4403593,25.2824789 30.228408,24.9983208 29,25 C24.9204604,25.0040414 21.496373,28.0749524 21.05,32.13 C20.9873222,32.6285375 20.5624585,33.0019026 20.06,33 L6.2,33 C5.70403104,33.0036695 5.28141191,32.6408146 5.21,32.15 C5.06939281,31.10255 4.99923519,30.0468449 5,28.99 C5.00178615,20.4156257 9.5778109,12.4935301 17.00433,8.20788989 C24.4308491,3.9222497 33.5795975,3.92415569 41.0043303,8.21288989 C48.429063,12.5016241 53.0017865,20.4256257 53,29 Z" id="Shape" fill="#BDC3C7" data-original="#BDC3C7" class="" style="fill:#BDC3C7"/><path d="M29,14 C28.4477153,14 28,13.5522847 28,13 L28,10 C28,9.44771525 28.4477153,9 29,9 C29.5522847,9 30,9.44771525 30,10 L30,13 C30,13.5522847 29.5522847,14 29,14 Z" id="Shape" fill="#E64C3C" data-original="#E64C3C" class="" style="fill:#E64C3C"/><path d="M13,30 L10,30 C9.44771525,30 9,29.5522847 9,29 C9,28.4477153 9.44771525,28 10,28 L13,28 C13.5522847,28 14,28.4477153 14,29 C14,29.5522847 13.5522847,30 13,30 Z" id="Shape" fill="#E64C3C" data-original="#E64C3C" class="" style="fill:#E64C3C"/><path d="M48,30 L45,30 C44.4477153,30 44,29.5522847 44,29 C44,28.4477153 44.4477153,28 45,28 L48,28 C48.5522847,28 49,28.4477153 49,29 C49,29.5522847 48.5522847,30 48,30 Z" id="Shape" fill="#E64C3C" data-original="#E64C3C" class="" style="fill:#E64C3C"/><path d="M43.782,23.877 C43.3047522,23.8772902 42.8938102,23.5402981 42.8006353,23.072234 C42.7074604,22.6041699 42.9580229,22.1354958 43.399,21.953 L46.171,20.805 C46.6813111,20.5934749 47.2664749,20.8356889 47.478,21.346 C47.6895251,21.8563111 47.4473111,22.4414749 46.937,22.653 L44.165,23.8 C44.0436372,23.8505969 43.9134874,23.8767628 43.782,23.877 Z" id="Shape" fill="#E64C3C" data-original="#E64C3C" class="" style="fill:#E64C3C"/><path d="M14.218,23.877 C14.0865797,23.8770798 13.9564324,23.8512542 13.835,23.801 L11.063,22.653 C10.7328866,22.5161673 10.5008486,22.2136152 10.4542925,21.8593123 C10.4077364,21.5050093 10.5537352,21.1527825 10.8372925,20.9353123 C11.1208498,20.717842 11.4988866,20.6681673 11.829,20.805 L14.6,21.953 C15.0409771,22.1354958 15.2915396,22.6041699 15.1983647,23.072234 C15.1051898,23.5402981 14.6942478,23.8772902 14.217,23.877 L14.218,23.877 Z" id="Shape" fill="#E64C3C" data-original="#E64C3C" class="" style="fill:#E64C3C"/><path d="M35.123,15.218 C34.9916153,15.2177188 34.8615373,15.1919069 34.74,15.142 C34.4948989,15.0404718 34.3001868,14.8457091 34.1987224,14.6005816 C34.097258,14.3554541 34.0973579,14.0800539 34.199,13.835 L35.347,11.064 C35.4765403,10.7236327 35.7808771,10.4806004 36.1414684,10.4295664 C36.5020597,10.3785325 36.8618851,10.5275668 37.0807893,10.8186192 C37.2996935,11.1096717 37.3430611,11.496718 37.194,11.829 L36.047,14.6 C35.8924151,14.973983 35.5276724,15.2179343 35.123,15.218 Z" id="Shape" fill="#E64C3C" data-original="#E64C3C" class="" style="fill:#E64C3C"/><path d="M22.877,15.218 C22.4723276,15.2179343 22.1075849,14.973983 21.953,14.6 L20.806,11.829 C20.6569389,11.496718 20.7003065,11.1096717 20.9192107,10.8186192 C21.1381149,10.5275668 21.4979403,10.3785325 21.8585316,10.4295664 C22.2191229,10.4806004 22.5234597,10.7236327 22.653,11.064 L23.8,13.835 C23.9016421,14.0800539 23.901742,14.3554541 23.8002776,14.6005816 C23.6988132,14.8457091 23.5041011,15.0404718 23.259,15.142 C23.1377741,15.19178 23.0080481,15.2175894 22.877,15.218 Z" id="Shape" fill="#E64C3C" data-original="#E64C3C" class="" style="fill:#E64C3C"/><path d="M17.687,18.687 C17.4214587,18.6872088 17.1667377,18.5817946 16.979,18.394 L14.858,16.272 C14.5980434,16.0209255 14.4937874,15.6491221 14.5853028,15.2994927 C14.6768183,14.9498632 14.9498632,14.6768183 15.2994927,14.5853028 C15.6491221,14.4937874 16.0209255,14.5980434 16.272,14.858 L18.394,16.979 C18.6806239,17.2649 18.7665934,17.6954072 18.6117586,18.0694636 C18.4569237,18.44352 18.0918357,18.687319 17.687,18.687 Z" id="Shape" fill="#E64C3C" data-original="#E64C3C" class="" style="fill:#E64C3C"/><path d="M40.313,18.687 C39.9081643,18.687319 39.5430763,18.44352 39.3882414,18.0694636 C39.2334066,17.6954072 39.3193761,17.2649 39.606,16.979 L41.728,14.858 C41.9790745,14.5980434 42.3508779,14.4937874 42.7005073,14.5853028 C43.0501368,14.6768183 43.3231817,14.9498632 43.4146972,15.2994927 C43.5062126,15.6491221 43.4019566,16.0209255 43.142,16.272 L41.021,18.394 C40.8332623,18.5817946 40.5785413,18.6872088 40.313,18.687 Z" id="Shape" fill="#E64C3C" data-original="#E64C3C" class="" style="fill:#E64C3C"/><path d="M40.46,23.21 L36.18,29.47 L36.17,29.46 C35.3872563,27.8872224 34.1127776,26.6127437 32.54,25.83 L32.53,25.82 L38.79,21.54 C39.2668684,21.2091201 39.9121968,21.2669683 40.3226143,21.6773857 C40.7330317,22.0878032 40.7908799,22.7331316 40.46,23.21 Z" id="Shape" fill="#E64C3C" data-original="#E64C3C" class="" style="fill:#E64C3C"/><path d="M48,30 C47.4477153,30 47,29.5522847 47,29 C47,28.639 46.991,28.277 46.972,27.925 C46.935,27.389 46.878,26.85 46.803,26.319 C46.803,26.301 46.796,26.282 46.793,26.264 C46.747,25.964 46.7,25.677 46.636,25.388 C46.4689058,24.551 46.2372125,23.7282044 45.943,22.927 C45.854,22.659 45.756,22.427 45.659,22.202 C45.644,22.164 45.629,22.122 45.616,22.08 C45.476,21.738 45.347,21.467 45.216,21.204 C45.085,20.941 44.959,20.684 44.821,20.435 C43.1582274,17.365955 40.6398978,14.8458883 37.572,13.181 C37.311,13.036 37.062,12.906 36.805,12.787 C36.505,12.644 36.216,12.506 35.915,12.387 C35.881,12.376 35.848,12.364 35.815,12.351 C35.58,12.251 35.346,12.151 35.1,12.069 C34.2954461,11.7717717 33.4689412,11.537729 32.628,11.369 C32.317,11.299 32.028,11.253 31.728,11.207 L31.665,11.195 C31.138,11.121 30.599,11.064 30.053,11.026 C29.341147,10.9890038 28.627853,10.9890038 27.916,11.026 C27.384,11.063 26.846,11.12 26.316,11.194 C26.296,11.199 26.275,11.203 26.255,11.206 C25.955,11.252 25.67,11.298 25.382,11.363 C24.5439389,11.5297556 23.7201202,11.7614546 22.918,12.056 C22.641,12.148 22.407,12.249 22.172,12.349 C22.139,12.362 22.106,12.374 22.072,12.385 C21.772,12.504 21.479,12.642 21.195,12.778 C20.911,12.914 20.676,13.034 20.428,13.172 C17.3583896,14.8346959 14.8376579,17.3529959 13.172,20.421 C13.028,20.682 12.898,20.931 12.778,21.189 C12.635,21.489 12.496,21.78 12.378,22.082 C12.368,22.114 12.356,22.145 12.344,22.176 C12.237,22.428 12.139,22.657 12.061,22.894 C11.7636056,23.6988411 11.5295599,24.5256914 11.361,25.367 C11.292,25.675 11.245,25.967 11.199,26.262 C11.199,26.281 11.193,26.3 11.189,26.318 C11.1143333,26.8513333 11.058,27.391 11.02,27.937 C11.001,28.275 10.992,28.637 10.992,28.998 C10.992,29.5502847 10.5442847,29.998 9.992,29.998 C9.43971525,29.998 8.992,29.5502847 8.992,28.998 C8.992,28.598 9.003,28.198 9.024,27.813 C9.066,27.194 9.129,26.601 9.212,26.013 C9.212,25.983 9.22,25.954 9.226,25.926 C9.278,25.593 9.333,25.269 9.405,24.946 C9.58932985,24.0208297 9.84646314,23.1116679 10.174,22.227 C10.257,21.976 10.374,21.704 10.483,21.433 C10.4995357,21.3831259 10.5192426,21.3343598 10.542,21.287 C10.649,21.004 10.81,20.662 10.97,20.33 C11.103,20.042 11.255,19.751 11.416,19.46 C13.2654256,16.0555035 16.0623554,13.2603105 19.468,11.413 C19.746,11.258 20.038,11.107 20.339,10.967 C20.658,10.813 21.002,10.653 21.355,10.514 C21.3782278,10.5044692 21.4019251,10.4961251 21.426,10.489 C21.698,10.373 21.971,10.26 22.256,10.165 C23.137601,9.84265535 24.0425763,9.58824597 24.963,9.404 C25.263,9.335 25.586,9.283 25.92,9.23 C25.9486667,9.224 25.9786667,9.219 26.01,9.215 C26.5933333,9.13233333 27.1873333,9.06966667 27.792,9.027 C28.5857515,8.98400284 29.3812485,8.98400284 30.175,9.027 C30.795,9.07 31.389,9.133 31.975,9.216 C32.0059277,9.21970505 32.0366374,9.22504587 32.067,9.232 C32.4,9.284 32.722,9.337 33.045,9.41 C33.9685644,9.59604642 34.876546,9.85246095 35.761,10.177 C36.015,10.261 36.287,10.377 36.561,10.49 C36.5850749,10.4971251 36.6087722,10.5054692 36.632,10.515 C36.985,10.654 37.332,10.815 37.661,10.974 C37.949,11.108 38.241,11.259 38.532,11.421 C41.9355832,13.2705121 44.7300259,16.0670389 46.577,19.472 C46.732,19.752 46.884,20.043 47.023,20.344 C47.177,20.663 47.338,21.005 47.476,21.359 C47.484,21.379 47.492,21.402 47.5,21.426 C47.621,21.714 47.732,21.982 47.825,22.259 C48.1488967,23.140181 48.4036672,24.0452514 48.587,24.966 C48.655,25.266 48.709,25.595 48.761,25.929 C48.767,25.956 48.771,25.985 48.775,26.014 C48.8576667,26.598 48.9203333,27.192 48.963,27.796 C48.9876667,28.1986667 49,28.6 49,29 C49,29.5522847 48.5522847,30 48,30 Z" id="Shape" fill="#C03A2B" data-original="#C03A2B" class="" style="fill:#C43322" data-old_color="#C33221"/><path d="M27,46 L25,46 C24.4477153,46 24,45.5522847 24,45 C24,44.4477153 24.4477153,44 25,44 L27,44 C27.5522847,44 28,44.4477153 28,45 C28,45.5522847 27.5522847,46 27,46 Z" id="Shape" fill="#E64C3C" data-original="#E64C3C" class="" style="fill:#E64C3C"/><path d="M27,50 L25,50 C23.8954305,50 23,49.1045695 23,48 L23,42 C23,40.8954305 23.8954305,40 25,40 L27,40 C27.5522847,40 28,40.4477153 28,41 C28,41.5522847 27.5522847,42 27,42 L25,42 L25,48 L27,48 C27.5522847,48 28,48.4477153 28,49 C28,49.5522847 27.5522847,50 27,50 Z" id="Shape" fill="#E64C3C" data-original="#E64C3C" class="" style="fill:#E64C3C"/><path d="M19,46 L17,46 C16.4477153,46 16,45.5522847 16,45 L16,42 C16,40.8954305 16.8954305,40 18,40 L19,40 C20.6568542,40 22,41.3431458 22,43 C22,44.6568542 20.6568542,46 19,46 Z M18,44 L19,44 C19.5522847,44 20,43.5522847 20,43 C20,42.4477153 19.5522847,42 19,42 L18,42 L18,44 Z" id="Shape" fill="#E64C3C" data-original="#E64C3C" class="" style="fill:#E64C3C"/><path d="M39,46 C37.3431458,46 36,44.6568542 36,43 C36,41.3431458 37.3431458,40 39,40 C40.111599,39.9973077 41.1320366,40.6143524 41.646,41.6 C41.9022601,42.0893243 41.7133243,42.6937399 41.224,42.95 C40.7346757,43.2062601 40.1302601,43.0173243 39.874,42.528 C39.7168454,42.2640779 39.449612,42.0845475 39.1458648,42.0388305 C38.8421176,41.9931134 38.5338783,42.0860293 38.306,42.292 C38.111317,42.4761155 38.0007031,42.7320457 38,43 C37.9980328,43.2605963 38.1015486,43.5109097 38.287,43.694 C38.4723095,43.8899452 38.7303082,44.0006712 39,44 C39.5522847,44 40,44.4477153 40,45 C40,45.5522847 39.5522847,46 39,46 Z" id="Shape" fill="#E64C3C" data-original="#E64C3C" class="" style="fill:#E64C3C"/><path d="M39,50 C37.888401,50.0026923 36.8679634,49.3856476 36.354,48.4 C36.0977399,47.9106757 36.2866757,47.3062601 36.776,47.05 C37.2653243,46.7937399 37.8697399,46.9826757 38.126,47.472 C38.2829051,47.7362194 38.5501752,47.9160059 38.854049,47.961742 C39.1579229,48.0074781 39.4662727,47.9143283 39.694,47.708 C39.888683,47.5238845 39.9992969,47.2679543 40,47 C40,46.4477153 39.5522847,46 39,46 C38.4477153,46 38,45.5522847 38,45 C38,44.4477153 38.4477153,44 39,44 C40.6568542,44 42,45.3431458 42,47 C41.9907118,48.6529917 40.6529917,49.9907118 39,50 Z" id="Shape" fill="#E64C3C" data-original="#E64C3C" class="" style="fill:#E64C3C"/><path d="M17,50 C16.4477153,50 16,49.5522847 16,49 L16,45 C16,44.4477153 16.4477153,44 17,44 C17.5522847,44 18,44.4477153 18,45 L18,49 C18,49.5522847 17.5522847,50 17,50 Z" id="Shape" fill="#E64C3C" data-original="#E64C3C" class="" style="fill:#E64C3C"/><path d="M21,50 C20.6191744,50.0020788 20.2702259,49.7876694 20.1,49.447 L18.1,45.447 C17.8531287,44.9527051 18.0537051,44.3518713 18.548,44.105 C19.0422949,43.8581287 19.6431287,44.0587051 19.89,44.553 L21.89,48.553 C22.0445455,48.8622668 22.0283796,49.2294236 21.8472507,49.5239106 C21.6661219,49.8183976 21.3457279,49.9984342 21,50 Z" id="Shape" fill="#E64C3C" data-original="#E64C3C" class="" style="fill:#E64C3C"/><path d="M32,50.378 C31.30993,50.385457 30.7062963,49.9149961 30.545,49.244 L29.018,41.186 C28.9383013,40.829699 29.0591193,40.4582825 29.333187,40.2170581 C29.6072547,39.9758337 29.9910045,39.9031479 30.334304,40.0274372 C30.6776034,40.1517265 30.9258793,40.4532331 30.982,40.814 L32,46.191 L33.017,40.814 C33.0731207,40.4532331 33.3213966,40.1517265 33.664696,40.0274372 C34.0079955,39.9031479 34.3917453,39.9758337 34.665813,40.2170581 C34.9398807,40.4582825 35.0606987,40.829699 34.981,41.186 L33.467,49.186 C33.3213509,49.8802165 32.7093307,50.377509 32,50.378 Z" id="Shape" fill="#E64C3C" data-original="#E64C3C" class="" style="fill:#E64C3C"/></g></g></g> </svg>
